<?xml version="1.0"?>
<svg xmlns="http://www.w3.org/2000/svg" xmlns:xlink="http://www.w3.org/1999/xlink" version="1.1" id="Capa_1" x="0px" y="0px" viewBox="0 0 504.992 504.992" style="enable-background:new 0 0 504.992 504.992;" xml:space="preserve" width="512px" height="512px" class=""><g><g>
	<g>
		<g>
			<path d="M504.992,172.496L252.496,1.168L0,172.496l252.496,171.328L504.992,172.496z M252.496,39.824L448,172.496     L252.496,305.168L56.992,172.496L252.496,39.824z" data-original="#000000" class="active-path" data-old_color="#000000" fill="#FFFDFD"/>
			<rect x="78.695" y="281.429" transform="matrix(-0.5615 0.8275 -0.8275 -0.5615 393.987 386.0598)" width="32" height="32" data-original="#000000" class="active-path" data-old_color="#000000" fill="#FFFDFD"/>
			<polygon points="252.496,385.168 143.392,311.136 125.424,337.616 252.496,423.824 485.488,265.744 467.504,239.248    " data-original="#000000" class="active-path" data-old_color="#000000" fill="#FFFDFD"/>
			<rect x="25.735" y="245.494" transform="matrix(-0.5615 0.8275 -0.8275 -0.5615 281.556 373.7735)" width="32" height="32" data-original="#000000" class="active-path" data-old_color="#000000" fill="#FFFDFD"/>
			<polygon points="252.496,465.168 37.488,319.248 19.504,345.744 252.496,503.824 485.488,345.744 467.504,319.248    " data-original="#000000" class="active-path" data-old_color="#000000" fill="#FFFDFD"/>
		</g>
	</g>
</g></g> </svg>
