<?xml version="1.0"?>
<svg xmlns="http://www.w3.org/2000/svg" xmlns:xlink="http://www.w3.org/1999/xlink" version="1.1" id="Capa_1" x="0px" y="0px" viewBox="0 0 59.167 59.167" style="enable-background:new 0 0 59.167 59.167;" xml:space="preserve" width="512px" height="512px"><g><path id="XMLID_53_" d="M8.75,20.481h-3V5.664c0-0.829,0.671-1.5,1.5-1.5s1.5,0.671,1.5,1.5V20.481z M13,23.481H8.75h-3H1.5  c-0.829,0-1.5,0.671-1.5,1.5s0.671,1.5,1.5,1.5h4.25v27.021c0,0.829,0.671,1.5,1.5,1.5s1.5-0.671,1.5-1.5V26.481H13  c0.829,0,1.5-0.671,1.5-1.5S13.829,23.481,13,23.481z M31.083,5.664c0-0.829-0.671-1.5-1.5-1.5s-1.5,0.671-1.5,1.5v30.151h3V5.664z   M35.333,38.815h-4.25h-3h-4.25c-0.829,0-1.5,0.671-1.5,1.5s0.671,1.5,1.5,1.5h4.25v11.688c0,0.829,0.671,1.5,1.5,1.5  s1.5-0.671,1.5-1.5V41.815h4.25c0.829,0,1.5-0.671,1.5-1.5S36.162,38.815,35.333,38.815z M53.417,5.664c0-0.829-0.671-1.5-1.5-1.5  s-1.5,0.671-1.5,1.5v8.984h3V5.664z M57.667,17.648h-4.25h-3h-4.25c-0.829,0-1.5,0.671-1.5,1.5s0.671,1.5,1.5,1.5h4.25v32.854  c0,0.829,0.671,1.5,1.5,1.5s1.5-0.671,1.5-1.5V20.648h4.25c0.829,0,1.5-0.671,1.5-1.5S58.495,17.648,57.667,17.648z" data-original="#000000" class="active-path" data-old_color="#000000" fill="#1BBC9C"/></g> </svg>
