<?xml version="1.0"?>
<svg xmlns="http://www.w3.org/2000/svg" xmlns:xlink="http://www.w3.org/1999/xlink" version="1.1" id="Capa_1" x="0px" y="0px" viewBox="0 0 456.098 456.098" style="enable-background:new 0 0 456.098 456.098;" xml:space="preserve" width="512px" height="512px" class=""><g><path style="fill:#FFFFFF" d="M440.424,62.433V298.58c0,11.494-9.404,20.898-20.898,20.898H227.788H36.571  c-11.494,0-20.898-9.404-20.898-20.898V62.433c0-11.494,9.404-20.898,20.898-20.898h382.955  C431.02,41.535,440.424,50.939,440.424,62.433z" data-original="#4DCFE0" class="" data-old_color="#4DCFE0"/><path style="fill:#1BBC9C" d="M419.527,25.861H36.571C16.196,25.861,0,42.057,0,62.433V298.58  c0,20.376,16.196,36.571,36.571,36.571h175.543v63.739h-61.649c-8.882,0-15.673,6.792-15.673,15.673s6.792,15.673,15.673,15.673  H305.11c8.882,0,15.673-6.792,15.673-15.673s-6.792-15.673-15.673-15.673h-61.649v-63.739h176.065  c20.376,0,36.571-16.196,36.571-36.571V62.433C456.098,42.057,439.902,25.861,419.527,25.861z M424.751,298.58  c0,2.612-2.612,5.224-5.224,5.224H36.571c-2.612,0-5.224-2.612-5.224-5.224V62.433c0-2.612,2.612-5.224,5.224-5.224h382.955  c2.612,0,5.224,2.612,5.224,5.224L424.751,298.58L424.751,298.58z" data-original="#3A2C51" class="active-path" data-old_color="#3A2C51"/></g> </svg>
