<?xml version="1.0"?>
<svg xmlns="http://www.w3.org/2000/svg" id="Capa_1" enable-background="new 0 0 512 512" height="512px" viewBox="0 0 512 512" width="512px"><g><path d="m296.168 158.533c18.307 0 33.199 14.894 33.199 33.2s-14.893 33.2-33.199 33.2c-18.307 0-33.201-14.894-33.201-33.2s14.894-33.2 33.201-33.2z" data-original="#000000" class="active-path" data-old_color="#000000" fill="#1ABC9C"/><path d="m296.168 254.934c18.307 0 33.199 14.893 33.199 33.199v44.66c-10.557 3-21.693 4.607-33.199 4.607s-22.644-1.607-33.201-4.608v-44.659c-.001-18.306 14.894-33.199 33.201-33.199z" data-original="#000000" class="active-path" data-old_color="#000000" fill="#1ABC9C"/><path d="m4.394 507.606c2.928 2.929 6.768 4.394 10.606 4.394 3.84 0 7.678-1.465 10.607-4.394l128.918-128.918c39.279 34.265 89.02 52.977 141.643 52.977 57.651 0 111.852-22.45 152.617-63.216 40.764-40.764 63.215-94.965 63.215-152.616s-22.45-111.852-63.215-152.617c-40.766-40.766-94.966-63.216-152.617-63.216-57.652 0-111.852 22.45-152.618 63.216s-63.217 94.966-63.217 152.617c0 52.622 18.714 102.362 52.979 141.643l-128.918 128.918c-5.858 5.857-5.858 15.355 0 21.212zm140.205-291.773c0-83.574 67.994-151.566 151.568-151.566s151.566 67.992 151.566 151.566-67.991 151.567-151.565 151.567-151.569-67.993-151.569-151.567z" data-original="#000000" class="active-path" data-old_color="#000000" fill="#1ABC9C"/><path d="m296.168 94.267c67.032 0 121.566 54.534 121.566 121.566 0 43.901-23.393 82.44-58.367 103.812v-31.512c0-19.301-8.706-36.598-22.387-48.199 13.681-11.602 22.387-28.899 22.387-48.2 0-34.849-28.351-63.2-63.199-63.2-34.849 0-63.201 28.352-63.201 63.2 0 19.301 8.707 36.598 22.388 48.2-13.681 11.602-22.388 28.898-22.388 48.199v31.511c-34.974-21.371-58.367-59.909-58.367-103.811-.001-67.032 54.535-121.566 121.568-121.566z" data-original="#000000" class="active-path" data-old_color="#000000" fill="#1ABC9C"/></g> </svg>
