<?xml version="1.0"?>
<svg xmlns="http://www.w3.org/2000/svg" height="512px" viewBox="0 -44 412.13939 412" width="512px" class="hovered-paths"><g><path d="m82 266.546875v-42.5c-.148438-3.367187-2.941406-6.011719-6.3125-5.976563h-18.632812c-13.835938-.027343-25.042969-11.242187-25.054688-25.082031v-155.820312c.011719-13.839844 11.214844-25.0625 25.054688-25.097657h-20c-13.839844.035157-25.042969 11.257813-25.054688 25.097657v155.820312c.011719 13.839844 11.21875 25.054688 25.054688 25.082031h18.632812c3.371094-.035156 6.164062 2.605469 6.3125 5.972657v60.339843zm0 0" fill="#d4e1f4" data-original="#D4E1F4"/><path d="m0 37.167969v155.820312c.0195312 20.460938 16.59375 37.046875 37.054688 37.082031h12.945312v67.6875c-.0625 2.335938 1.265625 4.488282 3.386719 5.472657.746093.347656 1.554687.527343 2.378906.527343 1.457031.003907 2.863281-.53125 3.949219-1.5l81.066406-72.1875h182.839844c20.433594 0 37.378906-16.648437 37.378906-37.082031v-20.519531c5.894531-.632812 11.640625-2.25 17-4.785156v50.8125c-.019531 16.097656-6.4375 31.527344-17.84375 42.890625-11.402344 11.363281-26.859375 17.722656-42.957031 17.683593h-50.199219c-3.203125-19.9375-21.195312-34.058593-41.320312-32.4375-20.125 1.621094-35.621094 18.445313-35.589844 38.636719.050781 20.199219 15.632812 36.957031 35.773437 38.476563 20.140625 1.519531 38.058594-12.714844 41.136719-32.675782h50.199219c40.152343.074219 72.753906-32.429687 72.800781-72.578124v-58.140626c13-10.589843 22.140625-26.9375 22.140625-45.269531.105469-29.378906-21.941406-54.121093-51.140625-57.386719v-20.527343c0-20.429688-16.945312-37.0976565-37.378906-37.0976565h-286.566406c-20.464844.0429685-37.0351568 16.6367185-37.054688 37.0976565zm228.773438 274.855469c-14.742188 0-26.6875-11.949219-26.6875-26.691407 0-14.738281 11.949218-26.6875 26.6875-26.6875 14.742187 0 26.691406 11.953125 26.691406 26.691407-.019532 14.734374-11.957032 26.671874-26.691406 26.6875zm171.546874-196.941407c-.105468 22.742188-16.816406 41.992188-39.320312 45.289063v-90.582032c22.503906 3.296876 39.21875 22.550782 39.320312 45.292969zm-51.320312-77.914062v155.820312c-.164062 13.898438-11.476562 25.078125-25.378906 25.082031h-185.121094c-1.421875-.003906-2.792969.53125-3.832031 1.5l-72.667969 64.8125v-60.339843c-.148438-3.367188-2.941406-6.007813-6.3125-5.972657h-18.632812c-13.835938-.027343-25.042969-11.242187-25.054688-25.082031v-155.820312c.011719-13.839844 11.214844-25.0625 25.054688-25.097657h286.566406c13.90625.011719 25.214844 11.199219 25.378906 25.097657zm0 0" fill="#0635c9" data-original="#0635C9" class="hovered-path active-path" style="fill:#1ABC9C" data-old_color="#0635c9"/><g fill="#1ae5be"><path d="m65.777344 97.070312h41.410156c1.585938-.042968 3.089844-.710937 4.179688-1.867187 1.09375-1.152344 1.679687-2.691406 1.632812-4.277344v-17.246093c.058594-7.074219-2.726562-13.871094-7.726562-18.875h.0625c-.148438-.144532-.285157-.28125-.433594-.421876-.171875-.164062-.335938-.332031-.507813-.492187-.132812-.121094-.269531-.230469-.402343-.347656-.199219-.175781-.390626-.351563-.597657-.519531-.125-.097657-.253906-.199219-.378906-.296876-.21875-.175781-.433594-.351562-.65625-.515624-.132813-.097657-.273437-.191407-.40625-.289063-.222656-.15625-.4375-.316406-.664063-.464844-.109374-.074219-.222656-.140625-.332031-.210937-.257812-.167969-.511719-.335938-.773437-.492188-.058594-.035156-.121094-.066406-.179688-.097656-.316406-.1875-.628906-.367188-.949218-.539062-.042969-.023438-.089844-.042969-.132813-.066407-.339844-.179687-.683594-.355469-1.027344-.519531-.042969-.019531-.085937-.035156-.125-.054688-.351562-.164062-.703125-.320312-1.0625-.46875l-.089843-.035156c-.769532-.316406-1.554688-.601562-2.355469-.839844-.082031-.023437-.164063-.046874-.25-.070312-.332031-.101562-.667969-.191406-1.003907-.277344l-.035156-.007812c-.410156-.101563-.824218-.195313-1.238281-.277344-.101563-.019531-.214844-.035156-.320313-.054688-.320312-.058593-.644531-.121093-.972656-.167968-.167968-.023438-.339844-.039063-.507812-.0625-.265625-.035156-.53125-.070313-.796875-.101563-.269531-.027343-.542969-.039062-.816407-.058593-.167968-.011719-.335937-.027344-.507812-.035157-.441406-.023437-.777344-.035156-1.222656-.035156-14.714844.027344-26.621094 11.980469-26.589844 26.695313v17.246093c-.054688 1.582031.523438 3.121094 1.609375 4.273438 1.085937 1.15625 2.585937 1.828125 4.167969 1.871093zm6.222656-23.390624c-.019531-3.886719 1.507812-7.621094 4.246094-10.378907 2.738281-2.757812 6.460937-4.3125 10.347656-4.320312 3.859375-.011719 7.558594 1.542969 10.25 4.3125 2.726562 2.761719 4.222656 6.503906 4.15625 10.386719v11.390624h-29zm0 0" data-original="#1AE5BE" class="" style="fill:#1AE5BE"/><path d="m247 73.679688v17.246093c0 3.3125 3.179688 6.144531 6.492188 6.144531h41.40625c3.363281-.0625 6.066406-2.785156 6.101562-6.144531v-17.246093c.003906-7.09375-2.832031-13.894532-7.875-18.882813-7.71875-7.628906-19.253906-9.914063-29.300781-5.800781-10.046875 4.113281-16.671875 13.828125-16.824219 24.683594zm42 0v11.390624h-30v-11.390624c.121094-5.992188 3.792969-11.335938 9.34375-13.597657 5.546875-2.257812 11.910156-.996093 16.179688 3.207031 2.8125 2.730469 4.425781 6.46875 4.476562 10.390626zm0 0" data-original="#1AE5BE" class="" style="fill:#1AE5BE"/><path d="m138.933594 118.070312c-1.585938-.011718-3.113282.613282-4.238282 1.730469-1.125 1.117188-1.761718 2.636719-1.761718 4.222657.121094 26.097656 21.308594 47.1875 47.40625 47.1875 26.09375 0 47.285156-21.089844 47.402344-47.1875 0-1.585938-.632813-3.109376-1.761719-4.226563-1.125-1.117187-2.648438-1.742187-4.238281-1.730469zm66.4375 30.984376c-9.34375 9.367187-23.128906 12.742187-35.742188 8.746093-12.613281-3.996093-21.941406-14.691406-24.1875-27.730469h69.800782c-1.269532 7.191407-4.714844 13.816407-9.871094 18.984376zm0 0" data-original="#1AE5BE" class="" style="fill:#1AE5BE"/></g></g> </svg>
