<svg id="Layer_1" enable-background="new 0 0 512 512" height="512" viewBox="0 0 512 512" width="512" xmlns="http://www.w3.org/2000/svg"><g><g><g><path d="m498.655 512c-2.765 0-5.515-.858-7.838-2.543l-56.597-41.055h-189.146c-22.077 0-40.039-17.961-40.039-40.039v-231.336c0-7.371 5.975-13.346 13.346-13.346h253.58c22.077 0 40.039 17.961 40.039 40.039v274.934c0 5.017-2.813 9.61-7.283 11.889-1.913.976-3.991 1.457-6.062 1.457z" fill="#ff435b"/></g></g><g><g><path d="m15.003 418.001c-3.91 0-7.745-1.53-10.609-4.394-4.141-4.141-5.494-10.314-3.463-15.807l31.039-83.98c-20.942-32.774-31.97-70.53-31.97-109.698 0-112.553 91.569-204.122 204.122-204.122s204.122 91.568 204.122 204.122c0 112.553-91.569 204.121-204.122 204.121-33.437 0-66.365-8.203-95.691-23.783l-88.229 32.61c-1.696.626-3.455.931-5.199.931z" fill="#bee75e"/></g></g><path d="m204.122 0v408.243c112.553 0 204.122-91.568 204.122-204.121-.001-112.553-91.57-204.122-204.122-204.122z" fill="#00cb75"/><g><path d="m310.002 284.058c-3.149 0-6.279-.99-8.908-2.93l-81.39-60.058c-3.832-2.828-6.094-7.308-6.094-12.07 0-4.763 2.262-9.242 6.094-12.07l81.39-60.058c4.554-3.361 10.613-3.872 15.667-1.32 5.053 2.551 8.24 7.729 8.24 13.39v120.116c0 5.661-3.187 10.839-8.24 13.39-2.136 1.079-4.453 1.61-6.759 1.61z" fill="#f6efea"/></g><g><path d="m218 285.001h-96c-23.71 0-43-19.29-43-43v-66c0-23.71 19.29-43 43-43h96c23.71 0 43 19.29 43 43v66c0 23.71-19.289 43-43 43z" fill="#fff4f4"/></g><path d="m218 133h-13.879v152h13.879c23.71 0 43-19.29 43-43v-66c0-23.71-19.289-43-43-43z" fill="#f6efea"/></g></svg>